<?xml version="1.0" standalone="no"?>
<!DOCTYPE svg PUBLIC "-//W3C//DTD SVG 1.1//EN" "http://www.w3.org/Graphics/SVG/1.1/DTD/svg11.dtd" >
<svg xmlns="http://www.w3.org/2000/svg">
<metadata>Generated by IcoMoon</metadata>
<defs>
<font id="icons" horiz-adv-x="1024">
<font-face units-per-em="1024" ascent="960" descent="-64" />
<missing-glyph horiz-adv-x="1024" />
<glyph unicode="&#x20;" horiz-adv-x="512" d="" />
<glyph unicode="&#xe900;" glyph-name="ar-down" d="M512 14.769l-512 866.462 512-544.713 512 544.713-512-866.462z" />
<glyph unicode="&#xe901;" glyph-name="ar-l" d="M153.6 448l716.8 512-450.627-512 450.627-512-716.8 512z" />
<glyph unicode="&#xe902;" glyph-name="ar-r" d="M870.4 448l-716.8-512 450.627 512-450.627 512 716.8-512z" />
<glyph unicode="&#xe903;" glyph-name="cart" horiz-adv-x="1152" d="M1103.982 832h-815.422l-17.452 89.216c-4.408 22.528-24.152 38.784-47.108 38.784h-200c-13.254 0-24-10.746-24-24v-48c0-13.254 10.746-24 24-24h160.48l139.188-711.402c-22.076-23-35.668-54.202-35.668-88.598 0-70.692 57.308-128 128-128s128 57.308 128 128c0.024 22.474-5.898 44.554-17.166 64h290.334c-11.268-19.446-17.19-41.526-17.166-64 0-70.692 57.308-128 128-128s128 57.308 128 128c0 36.272-15.112 68.992-39.352 92.284l2.070 9.514c6.508 29.92-16.284 58.202-46.904 58.202h-564.296l-18.78 96h624.81c22.58 0 42.108 15.738 46.904 37.804l90.432 416c6.504 29.918-16.288 58.196-46.904 58.196zM416 16c-26.468 0-48 21.532-48 48s21.532 48 48 48c26.468 0 48-21.532 48-48s-21.532-48-48-48zM928 16c-26.468 0-48 21.532-48 48s21.532 48 48 48c26.468 0 48-21.532 48-48s-21.532-48-48-48zM974.876 416h-604.916l-62.62 320h737.096l-69.56-320z" />
<glyph unicode="&#xe904;" glyph-name="star" d="M1021.323 567.237c-6.744 20.736-25.136 35.415-46.808 37.376l-295.596 26.836-116.824 273.505c-8.624 20.094-28.251 33.063-50.096 33.063s-41.476-12.969-50.048-33.063l-116.82-273.505-295.646-26.836c-21.672-2-40.024-16.681-46.806-37.376-6.742-20.732-0.516-43.476 15.875-57.852l223.449-195.931-65.884-290.176c-4.82-21.339 3.461-43.399 21.165-56.199 9.516-6.912 20.695-10.364 31.914-10.364 9.641 0 19.289 2.56 27.907 7.717l254.894 152.408 254.848-152.408c18.695-11.173 42.203-10.149 59.871 2.648 17.701 12.8 25.984 34.86 21.164 56.199l-65.883 290.176 223.448 195.931c16.384 14.376 22.616 37.072 15.876 57.852v0z" />
<glyph unicode="&#xe905;" glyph-name="check" d="M994.007 645.615l-540.203-540.163c-40.003-40.013-104.893-40.013-144.934 0l-278.857 278.875c-40.018 40.010-40.018 104.909 0 144.926 40.026 40.026 104.911 40.026 144.919 0.015l206.427-206.426 467.706 467.707c40.028 40.025 104.914 39.995 144.927 0 40.008-40.018 40.008-104.893 0.015-144.934z" />
<glyph unicode="&#xe906;" glyph-name="home" d="M973.4 535.775c-0.024 0.022-0.044 0.044-0.068 0.067l-397.863 397.846c-16.955 16.966-39.502 26.312-63.486 26.312s-46.53-9.339-63.496-26.305l-397.652-397.645c-0.134-0.134-0.268-0.275-0.402-0.409-34.825-35.026-34.765-91.854 0.171-126.792 15.961-15.97 37.042-25.22 59.582-26.185 0.915-0.088 1.838-0.132 2.768-0.132h15.857v-292.791c0-57.939 47.14-105.077 105.093-105.077h155.655c15.775 0 28.574 12.79 28.574 28.574v229.547c0 26.439 21.505 47.943 47.944 47.943h91.807c26.439 0 47.948-21.504 47.948-47.943v-229.547c0-15.784 12.79-28.574 28.574-28.574h155.653c57.954 0 105.092 47.138 105.092 105.077v292.791h14.707c23.976 0 46.524 9.338 63.498 26.302 34.972 34.996 34.987 91.922 0.044 126.941v0z" />
<glyph unicode="&#xe907;" glyph-name="instagram" d="M1022.999 658.941c-2.399 54.409-11.197 91.815-23.803 124.227-13.002 34.405-33.006 65.208-59.213 90.815-25.608 26.005-56.614 46.212-90.619 59.012-32.602 12.604-69.811 21.403-124.221 23.801-54.815 2.602-72.218 3.204-211.244 3.204s-156.429-0.602-211.041-3.001c-54.409-2.399-91.814-11.205-124.219-23.802-34.413-13.002-65.216-33.006-90.822-59.215-26.005-25.607-46.204-56.613-59.011-90.619-12.604-32.608-21.403-69.81-23.802-124.22-2.602-54.815-3.204-72.218-3.204-211.244 0-139.028 0.602-156.429 3.001-211.041 2.399-54.41 11.205-91.814 23.809-124.227 13.003-34.406 33.202-65.208 59.207-90.816 25.607-26.004 56.613-46.211 90.619-59.011 32.608-12.605 69.811-21.404 124.228-23.803 54.605-2.406 72.013-3 211.041-3 139.026 0 156.429 0.594 211.041 3 54.408 2.399 91.814 11.197 124.219 23.803 68.818 26.606 123.226 81.016 149.834 149.827 12.595 32.607 21.402 69.816 23.8 124.227 2.399 54.612 3 72.013 3 211.041 0 139.026-0.202 156.429-2.601 211.041zM930.785 240.86c-2.204-50.010-10.604-77.015-17.605-95.020-17.206-44.611-52.611-80.015-97.221-97.221-18.004-7.002-45.204-15.401-95.020-17.597-54.011-2.406-70.208-3-206.838-3-136.627 0-153.029 0.594-206.843 3-50.010 2.196-77.016 10.596-95.020 17.597-22.2 8.205-42.407 21.207-58.808 38.211-17.003 16.604-30.006 36.608-38.211 58.808-7.001 18.002-15.401 45.212-17.597 95.017-2.407 54.011-3.001 70.218-3.001 206.845 0 136.63 0.594 153.032 3.001 206.838 2.196 50.010 10.596 77.015 17.597 95.019 8.205 22.207 21.207 42.407 38.414 58.816 16.597 17.003 36.601 30.006 58.808 38.203 18.003 7.001 45.211 15.401 95.018 17.605 54.011 2.399 70.216 3.001 206.838 3.001 136.829 0 153.029-0.602 206.845-3.001 50.010-2.204 77.015-10.604 95.017-17.605 22.2-8.197 42.406-21.199 58.808-38.203 17.004-16.605 30.006-36.609 38.211-58.816 7.002-18.003 15.401-45.204 17.605-95.019 2.399-54.011 3-70.208 3-206.838 0-136.627-0.602-152.63-3-206.641zM513.902 710.95c-145.224 0-263.052-117.821-263.052-263.052s117.828-263.050 263.052-263.050c145.231 0 263.050 117.819 263.050 263.050s-117.819 263.052-263.050 263.052zM513.902 277.263c-94.216 0-170.637 76.413-170.637 170.634 0 94.223 76.421 170.637 170.637 170.637 94.221 0 170.634-76.413 170.634-170.637 0-94.221-76.413-170.634-170.634-170.634v0zM848.765 721.352c0-33.913-27.497-61.41-61.417-61.41-33.912 0-61.412 27.497-61.412 61.41 0 33.921 27.5 61.411 61.412 61.411 33.92 0 61.417-27.49 61.417-61.411v0z" />
<glyph unicode="&#xe908;" glyph-name="chat" d="M896 960h-768c-70.6 0-128-57.4-128-128v-576c0-70.6 57.4-128 128-128h192v-168c0-14.2 11.6-24 24-24 4.8 0 9.8 1.4 14.2 4.8l249.8 187.2h288c70.6 0 128 57.4 128 128v576c0 70.6-57.4 128-128 128zM960 256c0-35.2-28.8-64-64-64h-309.4l-17-12.8-185.6-139.2v152h-256c-35.2 0-64 28.8-64 64v576c0 35.2 28.8 64 64 64h768c35.2 0 64-28.8 64-64v-576zM560 480h-288c-8.8 0-16-7.2-16-16v-32c0-8.8 7.2-16 16-16h288c8.8 0 16 7.2 16 16v32c0 8.8-7.2 16-16 16zM752 672h-480c-8.8 0-16-7.2-16-16v-32c0-8.8 7.2-16 16-16h480c8.8 0 16 7.2 16 16v32c0 8.8-7.2 16-16 16z" />
<glyph unicode="&#xe909;" glyph-name="pers" d="M938.667 37.246c-2.232 133.717-46.797 255.307-126.031 343.34-78.776 87.494-185.532 135.68-300.64 135.68-115.11 0-221.867-48.186-300.641-135.68-79.159-87.941-123.695-209.36-126.022-342.914 44.761-20.958 229.989-101.673 426.663-101.673 212.671 0 385.161 80.241 426.67 101.246v0zM494.933 550.4c113.108 0 204.8 91.692 204.8 204.8s-91.692 204.8-204.8 204.8c-113.108 0-204.8-91.692-204.8-204.8s91.692-204.8 204.8-204.8z" />
<glyph unicode="&#xe90a;" glyph-name="pinterest" horiz-adv-x="870" d="M449.108 960c-280.703-0.043-429.908-179.883-429.908-375.98 0-90.921 50.816-204.372 132.181-240.34 23.211-10.452 20.139 2.304 40.107 78.676 1.579 6.359 0.768 11.863-4.352 17.792-116.309 134.528-22.699 411.094 245.376 411.094 387.968 0 315.476-536.831 67.5-536.831-63.916 0-111.532 50.176-96.471 112.256 18.263 73.94 54.016 153.428 54.016 206.72 0 134.314-200.105 114.388-200.105-63.575 0-54.996 19.456-92.116 19.456-92.116s-64.385-260.096-76.332-308.692c-20.224-82.263 2.731-215.424 4.736-226.903 1.237-6.313 8.32-8.32 12.288-3.113 6.357 8.32 84.18 119.337 105.984 199.593 7.936 29.228 40.492 147.84 40.492 147.84 21.46-38.74 83.328-71.168 149.248-71.168 196.096 0 337.833 172.375 337.833 386.263-0.681 205.055-176.169 358.484-402.048 358.484v0z" />
<glyph unicode="&#xe90b;" glyph-name="search" d="M1011.487 8.841l-291.195 291.198c56.405 69.673 90.365 158.205 90.365 254.631 0 223.486-181.842 405.33-405.33 405.33-223.484 0-405.327-181.842-405.327-405.327 0-223.488 181.844-405.33 405.33-405.33 96.427 0 184.958 33.959 254.631 90.365l291.198-291.195c8.318-8.322 19.241-12.503 30.164-12.503 10.926 0 21.849 4.181 30.167 12.503 16.681 16.681 16.681 43.646-0.003 60.327zM405.33 234.673c-176.468 0-319.997 143.531-319.997 320 0 176.467 143.529 319.995 319.997 319.995s319.997-143.529 319.997-319.995c0-176.469-143.531-320-319.997-320z" />
<glyph unicode="&#xe90c;" glyph-name="wish" d="M830.27-36.324c0 0-0.001 0-0.001 0-2.956 0-5.696 0.927-7.945 2.506l0.044-0.029-310.369 215.912-310.369-215.87c-2.204-1.55-4.945-2.478-7.901-2.478-7.628 0-13.815 6.172-13.838 13.795v885.624c0.047 38.193 30.996 69.142 69.185 69.189h525.842c38.193-0.047 69.142-30.996 69.189-69.185v-885.627c0-7.642-6.195-13.838-13.838-13.838v0zM512 212.757c0 0 0.001 0 0.001 0 2.956 0 5.696-0.927 7.945-2.506l-0.044 0.029 296.531-206.281v859.136c0 22.927-18.586 41.514-41.514 41.514v0h-525.838c-22.927 0-41.514-18.586-41.514-41.514v0-859.136l296.531 206.281c2.204 1.55 4.944 2.477 7.9 2.477 0 0 0.001 0 0.001 0v0zM639.308 383.377c-0.001 0-0.002 0-0.003 0-3.057 0-5.883 0.991-8.173 2.67l0.039-0.027-119.171 86.666-119.171-86.653c-2.251-1.65-5.075-2.64-8.13-2.64-7.642 0-13.838 6.195-13.838 13.838 0 1.522 0.246 2.987 0.7 4.357l-0.028-0.098 45.485 140.163-119.185 86.666c-3.474 2.545-5.704 6.609-5.704 11.195 0 7.642 6.195 13.838 13.838 13.838 0.001 0 0.002 0 0.003 0h147.276l45.596 140.163c1.872 5.573 7.049 9.517 13.146 9.517s11.274-3.944 13.117-9.419l0.029-0.098 45.623-140.163h147.29c0.001 0 0.002 0 0.003 0 7.642 0 13.838-6.195 13.838-13.838 0-4.585-2.23-8.65-5.665-11.168l-0.039-0.027-119.185-86.666 45.485-140.163c0.429-1.277 0.677-2.747 0.677-4.276 0-7.642-6.195-13.838-13.838-13.838-0.005 0-0.009 0-0.014 0h0.001zM512 503.628c0.001 0 0.002 0 0.003 0 3.057 0 5.883-0.991 8.173-2.67l-0.039 0.027 92.866-67.529-35.439 109.222c-0.428 1.274-0.674 2.742-0.674 4.267 0 4.583 2.227 8.645 5.659 11.163l0.039 0.027 92.893 67.542h-114.771c-6.114 0-11.301 3.965-13.132 9.464l-0.028 0.098-35.549 109.264-35.536-109.319c-1.859-5.597-7.046-9.562-13.16-9.562h-114.785l92.907-67.501c3.47-2.545 5.697-6.608 5.697-11.19 0-1.525-0.247-2.992-0.702-4.364l0.028 0.098-35.466-109.208 92.866 67.529c2.251 1.652 5.077 2.643 8.134 2.643 0.006 0 0.012 0 0.017 0h-0.001z" />
<glyph unicode="&#xe90d;" glyph-name="calendar" d="M904 880h-48v80h-80v-80h-528v80h-80v-80h-48c-66.168 0-120-53.832-120-120v-704c0-66.168 53.832-120 120-120h784c66.168 0 120 53.832 120 120v704c0 66.168-53.832 120-120 120zM944 56c0-22.056-17.944-40-40-40h-784c-22.056 0-40 17.944-40 40v528h864v-528zM944 664h-864v96c0 22.056 17.944 40 40 40h48v-80h80v80h528v-80h80v80h48c22.056 0 40-17.944 40-40v-96zM152 500h80v-80h-80v80zM312 500h80v-80h-80v80zM472 500h80v-80h-80v80zM632 500h80v-80h-80v80zM792 500h80v-80h-80v80zM152 340h80v-80h-80v80zM312 340h80v-80h-80v80zM472 340h80v-80h-80v80zM632 340h80v-80h-80v80zM152 180h80v-80h-80v80zM312 180h80v-80h-80v80zM472 180h80v-80h-80v80zM632 180h80v-80h-80v80zM792 340h80v-80h-80v80z" />
<glyph unicode="&#xe90e;" glyph-name="telegram" d="M401.8 312.274l-16.94-238.249c24.236 0 34.732 10.409 47.319 22.912l113.62 108.585 235.436-172.416c43.177-24.064 73.6-11.392 85.248 39.724l154.537 724.138 0.044 0.043c13.696 63.829-23.084 88.789-65.152 73.13l-908.374-347.776c-61.995-24.064-61.056-58.624-10.538-74.284l232.236-72.233 539.433 337.535c25.388 16.811 48.471 7.509 29.484-9.301l-436.352-391.809z" />
<glyph unicode="&#xe90f;" glyph-name="vk" d="M849.708 404.14c-16.556 20.908-11.82 30.208 0 48.896 0.212 0.215 136.873 189.056 150.953 253.1l0.087 0.043c6.996 23.339 0 40.491-33.836 40.491h-111.956c-28.503 0-41.644-14.72-48.684-31.19 0 0-57.004-136.448-137.644-224.896-26.025-25.556-38.057-33.748-52.265-33.748-6.999 0-17.879 8.192-17.879 31.529v217.815c0 27.989-7.977 40.491-31.572 40.491h-176.044c-17.876 0-28.5-13.056-28.5-25.216 0-26.538 40.32-32.641 44.5-107.306v-162.007c0-35.497-6.441-42.025-20.736-42.025-38.057 0-130.431 137.001-185.172 293.801-11.051 30.423-21.845 42.711-50.56 42.711h-112c-31.957 0-38.4-14.72-38.4-31.189 0-29.098 38.059-173.782 176.981-364.929 92.587-130.473 222.975-201.172 341.59-201.172 71.296 0 80 15.7 80 42.708 0 124.672-6.444 136.448 29.268 136.448 16.556 0 45.056-8.192 111.616-71.124 76.076-74.624 88.576-108.032 131.156-108.032h111.959c31.913 0 48.084 15.7 38.784 46.676-21.292 65.152-165.164 199.168-171.648 208.128v0z" />
<glyph unicode="&#xe910;" glyph-name="picture" d="M938.667 806.4h-853.333c-47.104-0.055-85.278-38.229-85.333-85.333v-546.133c0.055-47.104 38.229-85.278 85.333-85.333h853.333c4.789-0.019 9.57 0.399 14.285 1.246 41.065 6.874 71.127 42.451 71.049 84.087v546.133c-0.055 47.106-38.229 85.278-85.333 85.333zM85.333 123.733c-26.528 0.004-48.661 20.269-50.995 46.694l340.275 222.481 346.044-269.175h-635.324zM989.867 174.933c0.028-25.050-18.116-46.423-42.837-50.466-2.761-0.497-5.559-0.742-8.363-0.734h-162.423l-226.116 175.974 202.206 161.69 237.534-142.524v-143.94zM989.867 358.673l-230.144 138.086c-6.118 3.68-13.879 3.162-19.456-1.297l-217.89-174.251-136.448 106.121c-5.749 4.467-13.698 4.798-19.797 0.819l-331.998-217.071v509.986c0 28.277 22.923 51.2 51.2 51.2h853.333c28.277 0 51.2-22.923 51.2-51.2v-362.394zM512 704c-56.555 0-102.4-45.845-102.4-102.4 0.055-56.531 45.869-102.345 102.4-102.4 56.555 0 102.4 45.845 102.4 102.4s-45.845 102.4-102.4 102.4zM512 533.333c-37.702 0-68.267 30.564-68.267 68.267s30.564 68.267 68.267 68.267c37.702 0 68.267-30.564 68.267-68.267s-30.564-68.267-68.267-68.267z" />
<glyph unicode="&#xe911;" glyph-name="key" d="M1024 607.998c0-194.404-157.596-351.998-352-351.998-22.44 0-44.38 2.124-65.654 6.138l-48.024-54.028c-8.832-9.904-21.628-16.11-35.874-16.11-0.001 0-0.001 0-0.002 0h-74.446v-80c0-26.51-21.49-48-48-48h-80v-80c0-26.51-21.49-48-48-48h-224c-26.51 0-48 21.49-48 48v156.118c0 12.73 5.058 24.94 14.058 33.942l323.604 323.604c-11.446 34.708-17.662 71.794-17.662 110.336 0 194.404 157.594 351.998 351.998 352 194.978 0.002 352.002-157.022 352.002-352.002zM672 704c0-53.020 42.98-96 96-96s96 42.98 96 96-42.98 96-96 96-96-42.98-96-96z" />
<glyph unicode="&#xe912;" glyph-name="box" d="M723.84 182.661c-1.152 15.135-13.179 27.162-28.314 28.314-16.927-1.29-29.599-16.056-28.314-32.978 1.157-15.135 13.179-27.162 28.314-28.314 16.927 1.285 29.604 16.056 28.314 32.978zM798.838 208.952c-1.152 15.13-13.174 27.156-28.308 28.308-16.927-1.29-29.604-16.056-28.314-32.978 1.152-15.135 13.179-27.156 28.314-28.314 16.927 1.29 29.599 16.056 28.308 32.983zM1023.862 676.452v1.421c-0.389 0.989-0.865 1.939-1.423 2.843l-1.065 1.421-2.135 2.31-1.239 1.066-2.309 1.066h-0.891l-385.879 157.763c-4.275 1.727-9.052 1.727-13.327 0l-389.431-157.23-2.131-2.31-1.066-1.421c-0.558-0.904-1.033-1.854-1.421-2.843v-1.421c-0.187-1.475-0.187-2.967 0-4.441v-142.129h-203.777c-9.811 0-17.766-7.954-17.766-17.766s7.955-17.766 17.766-17.766v-2.309h201.645v-60.76h-69.11c-9.811 0-17.766-7.956-17.766-17.766s7.954-17.766 17.766-17.766h69.11v-60.759h-163.804c-9.811 0-17.766-7.956-17.766-17.766s7.955-17.766 17.766-17.766h163.804v-74.26c0.035-7.173 4.381-13.624 11.015-16.348l385.167-159.892c1.93-0.763 3.973-1.183 6.042-1.244 2.068 0.061 4.116 0.481 6.042 1.244l385.167 159.892c6.636 2.724 10.982 9.175 11.018 16.348v444.15c0.184 1.475 0.184 2.967 0 4.441zM622.167 808.276l146.038-58.45-332.225-140.53-151.9 63.247 338.087 135.733zM603.868 94.433l-348.924 145.326v62.541h73.729c9.811 0 17.766 7.951 17.766 17.766 0 9.81-7.954 17.761-17.766 17.761h-73.729v60.764h168.778c9.811 0 17.766 7.951 17.766 17.766 0 9.81-7.954 17.766-17.766 17.766h-168.778v60.58h35.532c9.811 0 17.766 7.954 17.766 17.766s-7.955 17.766-17.766 17.766h-35.532v115.835l135.733-56.141 213.192-88.83v-406.667zM622.346 531.125l-140.352 58.806 332.582 141.063 145.505-58.628-337.736-141.241zM639.933 94.433v406.667l100.024 41.573 248.724 103.754 0.891-406.668-349.64-145.326z" />
<glyph unicode="&#xe913;" glyph-name="first" d="M999.28 544.769c-7.436 4.516-16.77 3.64-23.222-2.182-17.074-15.38-34.402-29.54-52.316-42.796 3.938 12.926 7.34 25.63 10.22 38.060 30.204 17.258 54.384 45.52 70.194 82.168 14.548 33.724 21.48 73.644 19.518 112.408-0.442 8.708-6.436 15.926-14.918 17.964-8.506 2.034-17.148-1.676-21.51-9.262-11.59-20.162-23.852-39.2-37.004-57.52-0.088 15.858-0.778 31.238-2.068 46.030-0.004 0.296 0 0.59-0.022 0.888-3.432 45.704-11.858 91.52-25.040 136.172-2.35 7.96-10.71 12.502-18.662 10.156-7.958-2.35-12.506-10.704-10.156-18.662 8.39-28.424 14.714-57.336 18.998-86.368-16.43 15.874-33.372 30.698-51.188 44.772-6.632 5.238-15.828 5.624-22.888 0.96-7.052-4.66-10.298-13.262-8.084-21.406 18.016-66.222 48.134-122.696 87.248-163.914-0.97-12.62-2.45-25.62-4.444-38.94-10.922 19.312-22.6 37.76-35.292 55.71-4.828 6.824-13.464 9.818-21.484 7.454-8.008-2.36-13.628-9.542-13.982-17.876-1.97-46.682 2.666-114.806 35.090-177.98-4.544-11.504-9.652-23.212-15.314-35.072-4.87 21.522-10.712 42.424-17.67 63.124-2.654 7.89-10.038 13.238-18.376 13.306-0.052 0-0.106 0-0.156 0-8.254 0-15.632-5.2-18.388-12.98-21.518-60.75-27.76-124.17-17.862-179.532-7.744-9.764-16.092-19.55-25.018-29.312 1.688 22.064 2.234 43.828 1.626 65.734-0.232 8.328-5.738 15.602-13.698 18.098-7.94 2.496-16.596-0.33-21.532-7.020-38.498-52.196-63.472-111.538-70.844-167.87-40.032-30.134-61.166-38.132-83.48-46.568-18.388-6.952-37.158-14.066-65.558-32.998-28.4 18.932-47.172 26.046-65.558 32.998-22.314 8.436-43.45 16.434-83.48 46.568-7.372 56.332-32.346 115.674-70.846 167.87-4.936 6.692-13.59 9.508-21.532 7.020-7.962-2.498-13.466-9.772-13.696-18.102-0.61-21.904-0.062-43.666 1.626-65.73-8.926 9.762-17.276 19.55-25.020 29.312 9.898 55.362 3.656 118.782-17.86 179.528-2.756 7.784-10.13 12.982-18.386 12.982-0.052 0-0.106 0-0.16 0-8.338-0.068-15.722-5.418-18.374-13.31-6.958-20.7-12.802-41.598-17.672-63.118-5.662 11.86-10.77 23.568-15.314 35.070 32.426 63.178 37.060 131.3 35.088 177.978-0.35 8.33-5.968 15.516-13.976 17.876-8.026 2.364-16.662-0.628-21.49-7.452-12.69-17.95-24.368-36.396-35.292-55.708-1.994 13.32-3.474 26.32-4.444 38.938 39.114 41.218 69.232 97.692 87.25 163.916 2.214 8.146-1.036 16.746-8.086 21.404-7.058 4.662-16.254 4.278-22.886-0.96-17.816-14.074-34.758-28.898-51.188-44.772 4.284 29.036 10.608 57.948 18.998 86.366 2.35 7.958-2.196 16.314-10.154 18.662-7.952 2.344-16.312-2.196-18.662-10.154-13.182-44.64-21.606-90.456-25.042-136.164-0.024-0.318-0.020-0.63-0.024-0.944-1.288-14.78-1.976-30.142-2.064-45.976-13.152 18.32-25.416 37.358-37.004 57.52-4.358 7.582-13.004 11.298-21.508 9.262-8.484-2.038-14.478-9.258-14.918-17.966-1.962-38.762 4.968-78.682 19.516-112.406 15.81-36.65 39.99-64.908 70.194-82.168 2.878-12.43 6.28-25.132 10.218-38.060-17.914 13.256-35.24 27.414-52.312 42.792-6.46 5.824-15.796 6.702-23.23 2.182-7.416-4.506-10.932-13.174-8.748-21.566 17.366-66.77 67.752-139.748 142-156.336 6.344-11 13.256-22.1 20.734-33.256-20.938 7.42-41.6 15.854-62.39 25.502-7.872 3.65-17.044 1.756-22.82-4.728-5.762-6.468-6.592-15.776-2.066-23.16 34.314-55.958 99.020-108.668 170.798-108.668 3.522 0 7.064 0.144 10.618 0.402 19.846-18.536 42.362-36.718 67.088-54.108 46.66-35.824 71.686-45.288 95.888-54.436 15.058-5.692 29.716-11.244 50.008-23.726-15.534-11.906-33.526-26.844-54.872-45.946-6.184-5.532-6.71-15.028-1.178-21.212 2.968-3.318 7.076-5.006 11.2-5.006 3.566 0 7.146 1.262 10.012 3.828 24.754 22.15 44.54 38.338 61.016 50.512 16.476-12.174 36.262-28.362 61.016-50.512 2.866-2.566 6.446-3.828 10.012-3.828 4.126 0 8.234 1.69 11.2 5.006 5.534 6.184 5.006 15.68-1.178 21.212-21.346 19.102-39.34 34.040-54.874 45.946 20.29 12.48 34.948 18.032 50.008 23.726 24.194 9.146 49.214 18.608 95.84 54.402 24.75 17.406 47.28 35.6 67.134 54.142 3.554-0.26 7.094-0.404 10.62-0.404 71.77 0 136.486 52.712 170.798 108.668 4.528 7.384 3.698 16.692-2.066 23.16-5.776 6.482-14.946 8.384-22.818 4.728-20.792-9.648-41.454-18.082-62.394-25.504 7.478 11.154 14.39 22.256 20.734 33.256 74.248 16.59 124.632 89.566 142 156.338 2.184 8.398-1.334 17.062-8.75 21.568zM943.096 585.265c0.412 2.654 0.824 5.306 1.2 7.938 0.23 1.616 0.436 3.216 0.652 4.824 0.332 2.462 0.658 4.922 0.954 7.364 0.2 1.646 0.382 3.28 0.568 4.916 0.27 2.386 0.53 4.766 0.766 7.13 0.162 1.624 0.314 3.24 0.462 4.854 0.216 2.366 0.416 4.72 0.598 7.062 0.068 0.864 0.158 1.742 0.22 2.602 15.714 19.228 30.196 39.034 43.764 59.862-4.896-40.872-20.73-82.452-49.746-110.272 0.202 1.246 0.368 2.476 0.562 3.72zM31.72 691.813c13.566-20.826 28.050-40.632 43.762-59.86 0.066-0.908 0.162-1.836 0.232-2.748 0.176-2.254 0.368-4.52 0.576-6.796 0.154-1.68 0.31-3.362 0.48-5.052 0.232-2.308 0.486-4.632 0.748-6.96 0.19-1.674 0.376-3.346 0.58-5.032 0.294-2.422 0.618-4.86 0.946-7.304 0.218-1.618 0.424-3.228 0.656-4.856 0.38-2.67 0.798-5.36 1.216-8.054 0.188-1.206 0.35-2.398 0.546-3.608-29.020 27.82-44.848 69.394-49.742 110.27zM150.748 602.951c-1.65-36.158-8.366-70.588-19.68-101.042-0.374 1.18-0.738 2.356-1.102 3.53-0.632 2.034-1.262 4.068-1.868 6.090-0.486 1.626-0.95 3.242-1.42 4.86-0.576 1.992-1.15 3.982-1.698 5.96-0.45 1.622-0.884 3.234-1.316 4.846-0.524 1.954-1.040 3.904-1.536 5.844-0.412 1.606-0.81 3.206-1.202 4.802-0.474 1.928-0.938 3.852-1.386 5.766-0.188 0.804-0.366 1.604-0.55 2.406 9.882 19.956 20.39 38.8 31.758 56.938zM103.83 686.911c0.020 1.726 0.058 3.436 0.092 5.15 0.044 2.146 0.092 4.29 0.158 6.416 0.054 1.708 0.122 3.404 0.192 5.098 0.086 2.1 0.18 4.194 0.29 6.272 0.088 1.674 0.188 3.34 0.292 5 0.13 2.070 0.27 4.128 0.424 6.174 0.064 0.868 0.136 1.726 0.206 2.588 15.5 16.674 31.302 32.114 47.768 46.646-12.768-35.558-29.47-67.204-49.444-93.734-0.008 1.27-0.004 2.532-0.004 3.796 0 2.206 0 4.41 0.026 6.594zM57.9 494.565c19.042-15.414 38.588-29.634 59.072-42.994 0.326-0.836 0.684-1.684 1.016-2.52 0.808-2.040 1.634-4.084 2.476-6.136 0.642-1.564 1.288-3.13 1.95-4.7 0.874-2.074 1.772-4.156 2.678-6.242 0.674-1.55 1.346-3.098 2.038-4.652 0.964-2.166 1.96-4.34 2.96-6.514 0.682-1.482 1.352-2.962 2.050-4.448 1.108-2.362 2.256-4.734 3.406-7.108 0.532-1.098 1.036-2.188 1.576-3.288-35.47 17.682-62.586 51.902-79.222 88.602zM197.214 446.409c8.828-34.598 12.334-69.276 10.31-101.754-0.664 0.968-1.318 1.934-1.974 2.902-1.218 1.796-2.434 3.592-3.622 5.384-0.916 1.382-1.81 2.762-2.71 4.142-1.14 1.752-2.274 3.502-3.384 5.248-0.89 1.402-1.762 2.8-2.634 4.2-1.070 1.716-2.132 3.434-3.172 5.146-0.858 1.414-1.704 2.824-2.542 4.234-1.006 1.692-2 3.382-2.978 5.068-0.414 0.714-0.816 1.426-1.226 2.138 3.686 21.84 8.292 42.788 13.932 63.292zM139.756 316.209c22.678-9.138 45.482-17.020 68.9-23.824 0.552-0.702 1.138-1.404 1.696-2.104 1.394-1.754 2.808-3.506 4.238-5.26 1.056-1.294 2.116-2.586 3.19-3.88 1.474-1.774 2.976-3.548 4.486-5.322 1.078-1.264 2.152-2.528 3.246-3.792 1.592-1.836 3.216-3.67 4.844-5.504 1.062-1.196 2.112-2.39 3.19-3.584 1.806-2 3.65-3.998 5.5-5.996 0.792-0.856 1.556-1.714 2.356-2.568-39.15 6.696-75.076 31.582-101.646 61.834zM324.617 217.911c-1.726 1.384-3.45 2.768-5.146 4.16-1.306 1.070-2.588 2.146-3.874 3.22-1.628 1.358-3.25 2.718-4.846 4.082-1.288 1.1-2.556 2.202-3.824 3.304-1.552 1.35-3.094 2.702-4.614 4.056-1.254 1.116-2.492 2.236-3.726 3.356-1.486 1.35-2.96 2.7-4.416 4.054-0.624 0.58-1.238 1.162-1.858 1.744-2.96 22.072-4.742 43.566-5.37 64.942 18.746-30.76 32.532-63.192 40.476-95.158-0.94 0.746-1.87 1.494-2.802 2.24zM731.681 245.887c-0.606-0.57-1.208-1.14-1.82-1.708-1.476-1.374-2.972-2.744-4.48-4.114-1.218-1.106-2.442-2.212-3.68-3.314-1.526-1.36-3.074-2.716-4.632-4.072-1.27-1.104-2.54-2.208-3.828-3.31-1.578-1.348-3.18-2.69-4.786-4.032-1.316-1.1-2.63-2.2-3.966-3.296-1.632-1.338-3.294-2.672-4.954-4.004-0.982-0.788-1.962-1.576-2.954-2.362 7.944 31.966 21.73 64.4 40.474 95.156-0.63-21.38-2.412-42.872-5.374-64.944zM826.784 446.411c5.638-20.504 10.244-41.452 13.93-63.294-0.408-0.71-0.81-1.422-1.222-2.134-0.974-1.682-1.966-3.366-2.968-5.052-0.848-1.428-1.704-2.856-2.574-4.288-1.022-1.684-2.066-3.37-3.118-5.056-0.892-1.432-1.784-2.864-2.696-4.3-1.082-1.702-2.188-3.406-3.296-5.112-0.93-1.43-1.858-2.862-2.808-4.296-1.126-1.696-2.276-3.396-3.43-5.096-0.706-1.042-1.412-2.084-2.128-3.128-2.024 32.48 1.482 67.158 10.31 101.756zM884.244 316.209c-26.576-30.252-62.494-55.14-101.65-61.84 0.892 0.954 1.744 1.91 2.628 2.864 1.74 1.882 3.48 3.764 5.182 5.65 1.13 1.252 2.23 2.504 3.342 3.758 1.582 1.782 3.162 3.566 4.708 5.35 1.12 1.292 2.218 2.584 3.318 3.876 1.49 1.75 2.968 3.498 4.424 5.248 1.090 1.31 2.162 2.62 3.232 3.93 1.416 1.736 2.814 3.472 4.196 5.208 0.566 0.71 1.16 1.424 1.72 2.134 23.418 6.802 46.22 14.682 68.9 23.822zM870.746 770.256c16.464-14.534 32.27-29.97 47.768-46.644 0.072-0.898 0.148-1.794 0.214-2.696 0.148-1.992 0.286-3.994 0.412-6.008 0.106-1.684 0.206-3.372 0.296-5.070 0.11-2.082 0.204-4.178 0.29-6.28 0.068-1.678 0.136-3.358 0.19-5.050 0.068-2.154 0.116-4.326 0.16-6.502 0.034-1.682 0.072-3.362 0.092-5.056 0.026-2.22 0.026-4.458 0.028-6.698 0-1.242 0.004-2.48-0.004-3.728-19.978 26.526-36.678 58.174-49.446 93.732zM873.248 602.951c11.37-18.136 21.876-36.982 31.758-56.936-0.188-0.822-0.37-1.642-0.564-2.466-0.44-1.882-0.896-3.772-1.362-5.666-0.396-1.614-0.8-3.23-1.214-4.854-0.498-1.946-1.016-3.902-1.542-5.86-0.426-1.592-0.854-3.184-1.298-4.782-0.564-2.030-1.152-4.074-1.744-6.118-0.45-1.552-0.896-3.104-1.362-4.664-0.634-2.12-1.294-4.252-1.958-6.384-0.342-1.102-0.682-2.204-1.034-3.312-11.312 30.45-18.028 64.882-19.68 101.042zM886.876 405.961c0.53 1.080 1.026 2.152 1.548 3.23 1.16 2.396 2.32 4.79 3.438 7.176 0.69 1.468 1.352 2.93 2.026 4.396 1.008 2.194 2.012 4.386 2.984 6.568 0.684 1.538 1.348 3.068 2.016 4.6 0.916 2.106 1.824 4.21 2.706 6.306 0.652 1.548 1.29 3.090 1.922 4.63 0.856 2.086 1.696 4.166 2.516 6.24 0.324 0.818 0.674 1.644 0.992 2.46 20.482 13.36 40.030 27.58 59.072 42.994-16.634-36.696-43.75-70.916-79.22-88.6zM648.677 441.181h-56.442v33.464c0 8.298-6.724 15.022-15.022 15.022s-15.022-6.726-15.022-15.022v-48.488c0-8.298 6.724-15.022 15.022-15.022h61.776v-41.41h-223.030v41.41h73.1c8.296 0 15.022 6.726 15.022 15.022v240.946c0 2.522 0.022 14.88 0.068 27.726 0.022 5.848-3.352 11.178-8.648 13.658-5.298 2.486-11.55 1.666-16.030-2.094l-64.754-54.33-27.632 36.626 27.642 23.428c6.33 5.366 7.112 14.844 1.746 21.174-5.362 6.328-14.844 7.108-21.172 1.746l-31.72-26.884c-9.862-8.36-11.486-22.988-3.698-33.294l34.44-45.652c4.65-6.164 11.748-9.698 19.474-9.698 5.722 0 11.29 2.028 15.672 5.708l44.568 37.394v-221.43h-67.766c-11.224 0-20.356-9.132-20.356-20.356v-60.786c0-11.226 9.132-20.358 20.356-20.358h242.406c11.224 0 20.356 9.132 20.356 20.358v60.786c0 11.224-9.132 20.356-20.356 20.356zM567.843 823.348h-59.392c-5.772 0-11.372-2.056-15.768-5.784l-44.052-37.336c-6.33-5.366-7.112-14.844-1.748-21.172 5.366-6.332 14.842-7.112 21.172-1.748l42.472 35.996h51.662v-248.76c0-8.298 6.724-15.022 15.022-15.022s15.022 6.726 15.022 15.022v254.416c0 13.448-10.942 24.388-24.39 24.388z" />
<glyph unicode="&#xe914;" glyph-name="wave-2" horiz-adv-x="30720" d="M0-64l230.4 166.4 358.4 179.2 435.2 179.2c384 140.8 384 128 819.2 204.8 1062.4 0 2252.8 19.2 4300.8-149.12 2048-170.88 4096-375.68 6144-273.28s4096 512.001 6144 648.321c2048 138.88 4096-1.92 6144-136.32 2048-134.401 4096-166.401 5081.6-448.001l1062.4-371.2h-1024c-1024 0-3072 0-5120 0s-4096 0-6144 0c-2048 0-4096 0-6144 0s-4096 0-6144 0c-2048 0-4096 0-5120 0h-1024z" />
<glyph unicode="&#xe915;" glyph-name="wave-6" horiz-adv-x="22756" d="M0-63.996l1706.667 521.481c805.926 186.311 1327.407 184.889 2844.444 186.311 1517.037-1.422 3034.074 254.579 4551.111 303.408 1517.037 50.726 3034.074-100.978 4551.111-227.556 1517.037-124.681 3034.074-228.978 4551.111-126.104 1517.037 100.978 2313.481-79.174 3176.296-202.433l1374.815-455.107h-758.519c-758.519 0-2275.556 0-3792.593 0s-3034.074 0-4551.111 0c-1517.037 0-3034.074 0-4551.111 0s-3034.074 0-4551.111 0c-1517.037 0-3034.074 0-3792.593 0h-758.519z" />
<glyph unicode="&#xe916;" glyph-name="wave-5" horiz-adv-x="20827" d="M407.864 283.119l624.814 251.661c763.661 0 1744.271 47.729 3132.746 72.461 1388.475 22.997 2776.949 300.691 4165.424 323.688 1388.475 24.732 2776.949-209.573 4165.424-208.271 1388.475-1.302 2776.949 233.003 4165.424 231.701 1388.475 1.302 2377.763-418.278 3072-532.393l711.593-182.237 381.831-303.729h-694.237c-694.237 0-2082.712 0-3471.186 0s-2776.949 0-4165.424 0c-1388.475 0-2776.949 0-4165.424 0s-2776.949 0-4165.424 0c-1388.475 0-2776.949 0-3471.186 0h-694.237l407.864 347.119z" />
<glyph unicode="&#xe917;" glyph-name="wave-4" horiz-adv-x="30720" d="M1676.8 384l4467.2 576 6144-614.4 6144-204.8 6144 204.8 3891.2 524.8 2252.8-934.4h-30720l1676.8 448z" />
<glyph unicode="&#xe918;" glyph-name="wave-1" horiz-adv-x="21943" d="M694.857 173.714l3693.714 493.714 4388.571-292.571 4388.571 585.143 4388.571-292.571 2514.286-292.571 1874.286-438.857h-21942.857l694.857 237.714z" />
<glyph unicode="&#xe919;" glyph-name="wave-3" horiz-adv-x="15754" d="M617.026 316.715l708.923 249.436c525.128-52.513 774.564-210.051 1824.821-157.538s2100.513 262.564 3150.769 350.195c1050.256 86.317 2100.513 53.497 3150.769 17.395s2100.513 154.257 3150.769 170.667c1050.256 16.41 150.974-414.524 676.103-380.718l1234.051-249.439 1240.615-380.715h-525.128c-525.128 0-1575.385 0-2625.641 0s-2100.513 0-3150.769 0c-1050.256 0-2100.513 0-3150.769 0s-2100.513 0-3150.769 0c-1050.256 0-2100.513 0-2625.641 0h-525.128l617.026 380.718z" />
</font>
</defs>
</svg>
