<svg width="30" height="30" fill="none" xmlns="http://www.w3.org/2000/svg"><path d="M9.57 23.564c-1.73 0-3.132 1.44-3.132 3.218C6.438 28.559 7.84 30 9.57 30c1.73 0 3.132-1.44 3.132-3.218 0-1.777-1.402-3.218-3.132-3.218zm0 5.006c-.961 0-1.74-.8-1.74-1.788 0-.987.779-1.788 1.74-1.788.96 0 1.74.8 1.74 1.788 0 .987-.78 1.788-1.74 1.788zm13.224-5.006c-1.73 0-3.132 1.44-3.132 3.218 0 1.777 1.402 3.218 3.132 3.218 1.73 0 3.132-1.44 3.132-3.218 0-1.777-1.402-3.218-3.132-3.218zm0 5.006c-.961 0-1.74-.8-1.74-1.788 0-.987.779-1.788 1.74-1.788.96 0 1.74.8 1.74 1.788 0 .987-.78 1.788-1.74 1.788zm7.064-23.779a.862.862 0 00-.557-.286L6.647 4.184 6.02 2.217C5.58.902 4.38.015 3.028 0H.696A.706.706 0 000 .715c0 .395.312.715.696.715h2.332a1.815 1.815 0 011.67 1.252l4.42 13.695-.348.822a3.514 3.514 0 00.313 3.11 3.218 3.218 0 002.61 1.503H25.23c.384 0 .696-.32.696-.715a.706.706 0 00-.696-.716H11.693a1.766 1.766 0 01-1.462-.858 2.014 2.014 0 01-.174-1.716l.278-.644 14.651-1.573c1.61-.182 2.933-1.385 3.306-3.004l1.67-7.187a.621.621 0 00-.104-.608zm-2.923 7.474c-.226 1.042-1.087 1.81-2.123 1.895l-14.477 1.537L7.1 5.614l21.332.322-1.496 6.329z" fill="#48494B"/></svg>