<svg width="20" height="21" fill="none" xmlns="http://www.w3.org/2000/svg"><path d="M19.462 8.7l-.001-.001L11.3.539A1.829 1.829 0 0010 0a1.83 1.83 0 00-1.303.54L.542 8.693l-.008.009a1.844 1.844 0 00.004 2.6 1.83 1.83 0 001.278.54h.326v6.004c0 1.188.966 2.155 2.155 2.155h3.192a.586.586 0 00.586-.586v-4.707c0-.543.441-.984.983-.984h1.883c.542 0 .983.441.983.984v4.707c0 .324.263.586.586.586h3.192a2.157 2.157 0 002.156-2.155v-6.004h.301a1.83 1.83 0 001.302-.54 1.844 1.844 0 00.001-2.603z" fill="#2C3034"/></svg>