<svg width="34" height="40" fill="none" xmlns="http://www.w3.org/2000/svg"><path d="M17.543 0C6.578.002.75 7.027.75 14.687c0 3.551 1.985 7.983 5.163 9.388.907.408.787-.09 1.567-3.073a.707.707 0 00-.17-.695c-4.543-5.255-.887-16.059 9.585-16.059 15.155 0 12.323 20.97 2.637 20.97-2.497 0-4.357-1.96-3.769-4.385.714-2.888 2.11-5.993 2.11-8.075 0-5.246-7.816-4.468-7.816 2.484 0 2.148.76 3.598.76 3.598S8.302 29 7.835 30.898c-.79 3.214.107 8.415.185 8.864.048.246.325.325.48.121.248-.325 3.288-4.661 4.14-7.796.31-1.142 1.582-5.775 1.582-5.775.838 1.513 3.255 2.78 5.83 2.78 7.66 0 13.196-6.734 13.196-15.089C33.222 5.993 26.367 0 17.543 0z" fill="#48494B"/></svg>