<svg width="48" height="48" fill="none" xmlns="http://www.w3.org/2000/svg"><g clip-path="url(#clip0)"><path d="M15.647 4.285h-4.495v5.88l2.374 1.158 2.12-1.157.869-2.7-.868-3.18z" fill="#6058AD"/><path d="M15.646 4.285v5.88l2.218.483 2.21-.482v-5.88h-4.428z" fill="#453F81"/><path d="M11.152 10.166v6.845h4.495l.868-3.258-.868-3.587h-4.495z" fill="#8298FC"/><path d="M15.646 10.166h4.428v6.845h-4.428v-6.845z" fill="#706BEF"/><path d="M6.285 16.605v11.356l3.674 6.5 5.688-.708 1.542-9.126-1.543-8.022h-9.36z" fill="#F0F7FF"/><path d="M33.864 16.605H15.647v17.148l24.706-5.792-6.49-11.356z" fill="#D6E8FD"/><path d="M11.019 30.122l-.983-3.241H0v2.85l4.572 11.203h11.074l1.928-5.703-1.928-5.11H11.02z" fill="#6058AD"/><path d="M21.256 26.88l-.982 3.242h-4.628v10.812h25.785L48 29.644v-2.763H21.255z" fill="#453F81"/><path d="M20.273 21.06h2.893v2.892h-2.893V21.06zm5.785 0h2.892v2.892h-2.892V21.06z" fill="#64BFED"/><path d="M11.417 23.952h4.23l.578-1.446-.579-1.446h-4.229v2.892z" fill="#A1D7F3"/><path d="M15.646 21.06h1.748v2.892h-1.747V21.06z" fill="#64BFED"/><path d="M13.333 39.979c-1.041.453-1.941.844-3.857.844-1.917 0-2.817-.391-3.858-.844-1.169-.508-2.494-1.084-5.012-1.084v2.892c1.917 0 2.817.391 3.858.844 1.169.508 2.494 1.084 5.012 1.084 2.518 0 3.842-.576 5.01-1.084.387-.168.753-.327 1.16-.461l.77-1.636-.77-1.364c-.945.214-1.654.522-2.313.809z" fill="#8298FC"/><path d="M41.095 39.979c-2.832-1.449-7.217-1.437-10.022 0-1.042.453-1.942.844-3.858.844-1.917 0-2.817-.392-3.858-.844-1.17-.508-2.494-1.084-5.012-1.084-1.098 0-1.968.11-2.698.275v3c.689-.228 1.492-.383 2.698-.383 1.917 0 2.817.391 3.858.844 1.169.508 2.494 1.084 5.012 1.084 2.518 0 3.842-.576 5.01-1.084 1.043-.453 1.942-.844 3.86-.844 1.916 0 2.816.391 3.857.844 1.169.508 2.493 1.084 5.012 1.084v-2.892c-1.917 0-2.817-.391-3.859-.844z" fill="#706BEF"/></g><defs><clipPath id="clip0"><path fill="#fff" d="M0 0h48v48H0z"/></clipPath></defs></svg>