<svg width="25" height="30" fill="none" xmlns="http://www.w3.org/2000/svg"><path d="M24.48 30a.602.602 0 01-.298-.077L12.5 23.236.818 29.922a.616.616 0 01-.538.028.494.494 0 01-.204-.157.374.374 0 01-.076-.222V2.143C0 1.575.275 1.03.764.628 1.252.227 1.914.001 2.604 0h19.792c.69 0 1.352.227 1.84.628.488.402.763.947.764 1.515V29.57a.394.394 0 01-.152.303.583.583 0 01-.369.126zM12.5 22.286a.6.6 0 01.297.076l11.161 6.39V2.141c0-.34-.164-.667-.457-.908a1.748 1.748 0 00-1.105-.377H2.604a1.75 1.75 0 00-1.105.377c-.293.24-.457.568-.457.909V28.75l11.16-6.389a.602.602 0 01.298-.076z" fill="#48494B"/><path d="M17.421 17a.628.628 0 01-.314-.082L12.5 14.233l-4.607 2.685a.628.628 0 01-.314.082.628.628 0 01-.315-.082.448.448 0 01-.194-.214.348.348 0 010-.265l1.758-4.342L4.22 9.412a.448.448 0 01-.195-.214.348.348 0 010-.265.448.448 0 01.195-.214.629.629 0 01.314-.082h5.693l1.763-4.342a.449.449 0 01.194-.214A.629.629 0 0112.5 4c.113 0 .223.029.314.081.091.053.16.128.194.214l1.764 4.342h5.694c.113 0 .223.028.314.082.092.053.16.128.195.214a.348.348 0 010 .265.448.448 0 01-.195.214l-4.607 2.685 1.758 4.342a.348.348 0 01.02.2.388.388 0 01-.096.184.522.522 0 01-.19.13.644.644 0 01-.243.047zM12.5 13.275a.63.63 0 01.314.082l3.59 2.092-1.37-3.384a.348.348 0 010-.264.448.448 0 01.194-.215l3.592-2.092h-4.437a.629.629 0 01-.315-.082.448.448 0 01-.194-.214L12.5 5.813 11.126 9.2a.448.448 0 01-.194.214.629.629 0 01-.315.082H6.18l3.592 2.09a.46.46 0 01.194.215.348.348 0 010 .265l-1.371 3.383 3.59-2.092a.628.628 0 01.315-.082z" fill="#48494B"/></svg>