<?xml version="1.0" standalone="no"?>
<!DOCTYPE svg PUBLIC "-//W3C//DTD SVG 20010904//EN"
 "http://www.w3.org/TR/2001/REC-SVG-20010904/DTD/svg10.dtd">
<svg version="1.0" xmlns="http://www.w3.org/2000/svg"
 width="256.000000pt" height="256.000000pt" viewBox="0 0 256.000000 256.000000"
 preserveAspectRatio="xMidYMid meet">
<metadata>
Created by potrace 1.14, written by Peter Selinger 2001-2017
</metadata>
<g transform="translate(0.000000,256.000000) scale(0.100000,-0.100000)"
fill="#000000" stroke="none">
<path d="M1025 2549 c-121 -17 -187 -39 -251 -84 -87 -62 -134 -137 -198 -315
-69 -196 -364 -983 -488 -1305 -77 -201 -81 -214 -83 -305 -5 -242 135 -440
365 -516 75 -25 287 -25 380 -1 99 26 185 74 237 131 72 79 88 124 88 236 -1
84 -4 101 -28 148 -75 145 -229 241 -396 247 -127 4 -223 -27 -292 -96 -98
-98 -75 -261 49 -340 115 -73 243 -67 271 12 23 66 -11 114 -92 130 -32 7 -68
20 -80 30 -20 16 -21 19 -6 34 19 19 77 34 135 35 114 0 239 -94 246 -187 10
-126 -115 -203 -332 -204 -135 0 -231 46 -297 144 -58 87 -68 228 -23 317 27
52 112 139 160 164 137 70 320 81 480 29 99 -33 216 -140 319 -293 141 -208
218 -298 322 -377 110 -83 264 -147 404 -168 93 -14 230 -15 255 -3 28 15 56
65 64 118 7 41 7 43 47 255 16 88 34 180 39 205 5 25 12 61 15 80 3 19 8 42
10 50 2 8 6 32 10 54 3 21 14 82 25 135 16 80 76 391 85 441 1 8 6 33 10 55 4
22 9 51 11 65 3 14 18 96 35 183 17 87 30 175 31 196 1 82 -39 113 -155 117
-334 12 -495 65 -646 213 -43 42 -97 101 -121 131 -60 76 -134 145 -189 176
-92 52 -284 81 -416 63z"/>
</g>
</svg>
