<svg width="30" height="34" viewBox="0 0 30 34" fill="none" xmlns="http://www.w3.org/2000/svg">
<path d="M30 26.1875H8.68335L8.06947 21.7625H26.3015L29.3267 4.0625H5.61424L5.15394 0.74375H0V2.95625H3.66959C4.15224 6.43504 6.382 22.5102 7.199 28.4H11.9118H25.1471H30V26.1875ZM6.99535 14.0187H10.5882V19.55H7.76265L6.99535 14.0187ZM17.6471 11.8062V6.275H21.1765V11.8062H17.6471ZM21.1765 14.0187V19.55H17.6471V14.0187H21.1765ZM15.8824 11.8062H12.3529V6.275H15.8824V11.8062ZM15.8824 14.0187V19.55H12.3529V14.0187H15.8824ZM22.9412 19.55V14.0187H25.8203L24.8749 19.55H22.9412ZM26.1985 11.8062H22.9412V6.275H27.1438L26.1985 11.8062ZM10.5882 6.275V11.8062H6.68841L5.92118 6.275H10.5882Z" fill="#48494B"/>
<path d="M11.9124 33.9313C13.1307 33.9313 14.1183 32.6931 14.1183 31.1656C14.1183 29.6382 13.1307 28.4 11.9124 28.4C10.6941 28.4 9.70642 29.6382 9.70642 31.1656C9.70642 32.6931 10.6941 33.9313 11.9124 33.9313Z" fill="#48494B"/>
<path d="M25.1473 33.9313C26.3655 33.9313 27.3531 32.6931 27.3531 31.1656C27.3531 29.6382 26.3655 28.4 25.1473 28.4C23.929 28.4 22.9414 29.6382 22.9414 31.1656C22.9414 32.6931 23.929 33.9313 25.1473 33.9313Z" fill="#48494B"/>
</svg>
