<svg width="30" height="30" viewBox="0 0 30 30" fill="none" xmlns="http://www.w3.org/2000/svg">
<path d="M9.56987 23.5638C7.84011 23.5638 6.43793 25.0046 6.43793 26.7819C6.43793 28.5593 7.84017 30 9.56987 30C11.2996 30 12.7018 28.5592 12.7018 26.7819C12.7019 25.0046 11.2996 23.5638 9.56987 23.5638ZM9.56987 28.5698C8.6089 28.5698 7.82992 27.7694 7.82992 26.782C7.82992 25.7946 8.6089 24.9942 9.56987 24.9942C10.5308 24.9942 11.3098 25.7946 11.3098 26.782C11.3099 27.7694 10.5308 28.5698 9.56987 28.5698Z" fill="#48494B"/>
<path d="M22.7937 23.5638C21.064 23.5638 19.6618 25.0046 19.6618 26.7819C19.6618 28.5593 21.0641 30 22.7937 30C24.5234 30 25.9257 28.5592 25.9257 26.7819C25.9257 25.0046 24.5235 23.5638 22.7937 23.5638ZM22.7937 28.5698C21.8328 28.5698 21.0538 27.7694 21.0538 26.782C21.0538 25.7946 21.8328 24.9942 22.7937 24.9942C23.7547 24.9942 24.5337 25.7946 24.5337 26.782C24.5338 27.7694 23.7547 28.5698 22.7937 28.5698Z" fill="#48494B"/>
<path d="M29.8581 4.79148C29.7131 4.6288 29.5148 4.52696 29.3013 4.5054L6.64675 4.18359L6.02036 2.21694C5.57907 0.902257 4.38092 0.0147148 3.02756 0H0.695994C0.311595 0 0 0.320167 0 0.71514C0 1.11011 0.311595 1.43028 0.695994 1.43028H3.02756C3.7843 1.44746 4.45066 1.94674 4.69798 2.68179L9.11753 16.3767L8.76956 17.1991C8.38143 18.2275 8.498 19.3849 9.08276 20.3099C9.66192 21.2184 10.6363 21.7791 11.6928 21.8117H25.2298C25.6142 21.8117 25.9258 21.4916 25.9258 21.0966C25.9258 20.7016 25.6142 20.3814 25.2298 20.3814H11.6927C11.0961 20.3661 10.5469 20.0436 10.2311 19.5233C9.91883 19.0093 9.85469 18.3761 10.0571 17.8069L10.3355 17.1633L24.9862 15.59C26.5954 15.4078 27.9192 14.2052 28.2922 12.5864L29.9626 5.39924C30.0378 5.19227 29.9979 4.95951 29.8581 4.79148ZM26.9349 12.2646C26.709 13.3067 25.848 14.0754 24.8122 14.1598L10.3355 15.6973L7.09915 5.61387L28.4313 5.93568L26.9349 12.2646Z" fill="#48494B"/>
</svg>
