<svg width="20" height="21" viewBox="0 0 20 21" fill="none" xmlns="http://www.w3.org/2000/svg">
<path d="M19.4623 8.69992C19.4618 8.69947 19.4614 8.69901 19.4609 8.69855L11.3016 0.539606C10.9539 0.19167 10.4915 0 9.99964 0C9.50779 0 9.04541 0.191517 8.69747 0.539453L0.542495 8.69428C0.539748 8.69702 0.537002 8.69992 0.534255 8.70267C-0.179929 9.42097 -0.178709 10.5864 0.537765 11.3029C0.865099 11.6304 1.29742 11.8201 1.75966 11.8399C1.77843 11.8417 1.79735 11.8426 1.81643 11.8426H2.14163V17.8471C2.14163 19.0353 3.10837 20.002 4.29685 20.002H7.489C7.81252 20.002 8.075 19.7397 8.075 19.416V14.7085C8.075 14.1663 8.51603 13.7253 9.05823 13.7253H10.941C11.4832 13.7253 11.9243 14.1663 11.9243 14.7085V19.416C11.9243 19.7397 12.1866 20.002 12.5103 20.002H15.7024C16.8909 20.002 17.8576 19.0353 17.8576 17.8471V11.8426H18.1592C18.6509 11.8426 19.1133 11.6511 19.4614 11.3032C20.1786 10.5855 20.1789 9.41808 19.4623 8.69992Z" fill="#2C3034"/>
</svg>
