<svg width="25" height="30" viewBox="0 0 25 30" fill="none" xmlns="http://www.w3.org/2000/svg">
<path d="M25 27.0338C24.9346 23.1163 23.629 19.5541 21.3077 16.975C18.9998 14.4117 15.8722 13 12.4999 13C9.12754 13 5.99988 14.4117 3.69206 16.975C1.37295 19.5514 0.0681965 23.1086 0 27.0213C1.31136 27.6353 6.73796 30 12.4999 30C18.7305 30 23.7839 27.6492 25 27.0338V27.0338Z" fill="#48494B"/>
<path d="M12 12C15.3137 12 18 9.31371 18 6C18 2.68629 15.3137 0 12 0C8.68629 0 6 2.68629 6 6C6 9.31371 8.68629 12 12 12Z" fill="#48494B"/>
</svg>
