<svg width="34" height="40" viewBox="0 0 34 40" fill="none" xmlns="http://www.w3.org/2000/svg">
<path d="M17.5433 0C6.57833 0.00166667 0.75 7.02667 0.75 14.6867C0.75 18.2383 2.735 22.67 5.91333 24.075C6.82 24.4833 6.7 23.985 7.48 21.0017C7.54167 20.7533 7.51 20.5383 7.31 20.3067C2.76667 15.0517 6.42333 4.24833 16.895 4.24833C32.05 4.24833 29.2183 25.2183 19.5317 25.2183C17.035 25.2183 15.175 23.2583 15.7633 20.8333C16.4767 17.945 17.8733 14.84 17.8733 12.7583C17.8733 7.51167 10.0567 8.29 10.0567 15.2417C10.0567 17.39 10.8167 18.84 10.8167 18.84C10.8167 18.84 8.30167 29 7.835 30.8983C7.045 34.1117 7.94167 39.3133 8.02 39.7617C8.06833 40.0083 8.345 40.0867 8.5 39.8833C8.74833 39.5583 11.7883 35.2217 12.64 32.0867C12.95 30.945 14.2217 26.3117 14.2217 26.3117C15.06 27.825 17.4767 29.0917 20.0517 29.0917C27.7117 29.0917 33.2483 22.3583 33.2483 14.0033C33.2217 5.99333 26.3667 0 17.5433 0V0Z" fill="#48494B"/>
</svg>
