<svg width="50" height="50" viewBox="0 0 50 50" fill="none" xmlns="http://www.w3.org/2000/svg">
<path d="M36.8145 0H13.1806C5.79032 0 0 5.79193 0 13.1839V36.8177C0 44.2097 5.79032 50 13.1806 50H36.8145C44.2081 50 50 44.2097 50 36.8161V13.1839C50 5.79193 44.2081 0 36.8145 0ZM46.7742 36.8161C46.7742 42.4919 42.4935 46.7726 36.8145 46.7726H13.1806C7.50484 46.7726 3.22581 42.4935 3.22581 36.8161V13.1839C3.22581 7.50645 7.50484 3.22581 13.1806 3.22581H36.8145C42.4935 3.22581 46.7742 7.50645 46.7742 13.1839V36.8161Z" fill="#33478F"/>
<path d="M25.8193 12C18.6264 12 15 16.9911 15 21.1523C15 23.6729 15.986 25.9137 18.0986 26.7506C18.1877 26.7854 18.2754 26.8035 18.3576 26.8035C18.5943 26.8035 18.7851 26.6587 18.8576 26.383C18.9286 26.1267 19.0929 25.4792 19.1681 25.2062C19.2684 24.8386 19.2308 24.7118 18.9509 24.3915C18.3409 23.6952 17.9496 22.7942 17.9496 21.5199C17.9496 17.8156 20.8156 14.5025 25.4056 14.5025C29.4707 14.5025 31.7045 16.9062 31.7045 20.1162C31.7045 24.34 29.7729 27.9065 26.9055 27.9065C25.3193 27.9065 24.1356 26.6378 24.5158 25.0837C24.9712 23.2273 25.8541 21.2247 25.8541 19.8864C25.8541 18.686 25.187 17.6875 23.8111 17.6875C22.1901 17.6875 20.8894 19.3071 20.8894 21.4796C20.8894 22.861 21.3726 23.7983 21.3726 23.7983C21.3726 23.7983 19.7182 30.5915 19.4271 31.7822C18.8478 34.151 19.3394 37.056 19.3812 37.3485C19.3951 37.4529 19.4842 37.51 19.5761 37.51C19.6374 37.51 19.7001 37.4849 19.7405 37.432C19.8909 37.2454 21.8183 34.9406 22.4742 32.6372C22.6622 31.9855 23.5395 28.6112 23.5395 28.6112C24.0659 29.5818 25.6034 30.4355 27.2397 30.4355C32.1055 30.4355 35.4074 26.1448 35.4074 20.3975C35.406 16.0483 31.6028 12 25.8193 12Z" fill="#33478F"/>
</svg>
