<svg width="48" height="48" viewBox="0 0 48 48" fill="none" xmlns="http://www.w3.org/2000/svg">
<g clip-path="url(#clip0)">
<path d="M15.6469 4.28516H11.1523V10.1659L13.5259 11.3228L15.6469 10.1659L16.5145 7.46654L15.6469 4.28516Z" fill="#6058AD"/>
<path d="M15.6465 4.28516V10.1659L17.8638 10.6479L20.0745 10.1659V4.28516H15.6465Z" fill="#453F81"/>
<path d="M11.1523 10.1659V17.0107H15.6469L16.5145 13.7526L15.6469 10.1659H11.1523Z" fill="#8298FC"/>
<path d="M15.6465 10.1659H20.0745V17.0107H15.6465V10.1659Z" fill="#706BEF"/>
<path d="M6.28516 16.6051V27.961L9.95859 34.4601L15.6465 33.7534L17.189 24.6267L15.6465 16.6051H6.28516Z" fill="#F0F7FF"/>
<path d="M33.8637 16.6051H15.6465V33.7534L40.3529 27.961L33.8637 16.6051Z" fill="#D6E8FD"/>
<path d="M11.0187 30.1219L10.0363 26.8807H0V29.7308L4.57203 40.9341H15.6461L17.5742 35.2314L15.6461 30.1219H11.0187Z" fill="#6058AD"/>
<path d="M21.2562 26.8807L20.2739 30.1219H15.6465V40.9341H41.4305L48.0004 29.6444V26.8807H21.2562Z" fill="#453F81"/>
<path d="M20.2734 21.0597H23.1656V23.9519H20.2734V21.0597Z" fill="#64BFED"/>
<path d="M26.0576 21.0597H28.9498V23.9519H26.0576V21.0597Z" fill="#64BFED"/>
<path d="M11.417 23.9519H15.6465L16.2249 22.5058L15.6465 21.0597H11.417V23.9519Z" fill="#A1D7F3"/>
<path d="M15.6465 21.0597H17.3941V23.9519H15.6465V21.0597Z" fill="#64BFED"/>
<path d="M13.3334 39.9788C12.2917 40.4317 11.392 40.8229 9.47556 40.8229C7.55902 40.8229 6.65936 40.4317 5.6176 39.9788C4.44898 39.4706 3.12446 38.8948 0.606445 38.8948V41.7869C2.52299 41.7869 3.42264 42.1781 4.4644 42.6311C5.63303 43.1392 6.95754 43.715 9.47556 43.715C11.9936 43.715 13.318 43.1391 14.4866 42.6311C14.8728 42.4631 15.2395 42.3038 15.6456 42.1697L16.4168 40.5337L15.6456 39.1699C14.7013 39.384 13.9924 39.6921 13.3334 39.9788V39.9788Z" fill="#8298FC"/>
<path d="M41.0954 39.9786C38.2627 38.53 33.8784 38.5421 31.0727 39.9787C30.0309 40.4315 29.131 40.8228 27.2145 40.8228C25.2979 40.8228 24.3983 40.4315 23.3565 39.9786C22.1879 39.4705 20.8634 38.8947 18.3453 38.8947C17.2474 38.8947 16.3766 39.0042 15.6465 39.1698V42.1695C16.336 41.9418 17.1392 41.7868 18.3453 41.7868C20.2618 41.7868 21.1616 42.178 22.2034 42.6309C23.3719 43.1391 24.6965 43.7149 27.2145 43.7149C29.7327 43.7149 31.0572 43.139 32.2258 42.6309C33.2677 42.178 34.1675 41.7868 36.0841 41.7868C38.0006 41.7868 38.9005 42.178 39.9423 42.6309C41.1109 43.1391 42.4354 43.7149 44.9537 43.7149V40.8228C43.037 40.8229 42.1373 40.4316 41.0954 39.9786V39.9786Z" fill="#706BEF"/>
</g>
<defs>
<clipPath id="clip0">
<rect width="48" height="48" fill="white"/>
</clipPath>
</defs>
</svg>
