<svg width="50" height="50" viewBox="0 0 50 50" fill="none" xmlns="http://www.w3.org/2000/svg">
<path d="M36.8145 0H13.1806C5.79032 0 0 5.79193 0 13.1839V36.8177C0 44.2097 5.79032 50 13.1806 50H36.8145C44.2081 50 50 44.2097 50 36.8161V13.1839C50 5.79193 44.2081 0 36.8145 0ZM46.7742 36.8161C46.7742 42.4919 42.4935 46.7726 36.8145 46.7726H13.1806C7.50484 46.7726 3.22581 42.4935 3.22581 36.8161V13.1839C3.22581 7.50645 7.50484 3.22581 13.1806 3.22581H36.8145C42.4935 3.22581 46.7742 7.50645 46.7742 13.1839V36.8161Z" fill="#33478F"/>
<path d="M21.7715 29.4768L21.2752 36.4568C21.9852 36.4568 22.2927 36.1518 22.6615 35.7855L25.9902 32.6043L32.8877 37.6555C34.1527 38.3605 35.044 37.9893 35.3852 36.4918L39.9127 15.2768L39.914 15.2755C40.3152 13.4055 39.2377 12.6743 38.0052 13.133L11.3927 23.3218C9.57647 24.0268 9.60397 25.0393 11.084 25.498L17.8877 27.6143L33.6915 17.7255C34.4352 17.233 35.1115 17.5055 34.5552 17.998L21.7715 29.4768Z" fill="#33478F"/>
</svg>
