<svg width="40" height="40" viewBox="0 0 40 40" fill="none" xmlns="http://www.w3.org/2000/svg">
<g clip-path="url(#clip0)">
<path d="M33.1917 21.7133C32.545 20.8966 32.73 20.5333 33.1917 19.8033C33.2 19.7949 38.5383 12.4183 39.0883 9.91659L39.0917 9.91492C39.365 9.00325 39.0917 8.33325 37.77 8.33325H33.3967C32.2833 8.33325 31.77 8.90825 31.495 9.55159C31.495 9.55159 29.2683 14.8816 26.1183 18.3366C25.1017 19.3349 24.6317 19.6549 24.0767 19.6549C23.8033 19.6549 23.3783 19.3349 23.3783 18.4233V9.91492C23.3783 8.82159 23.0667 8.33325 22.145 8.33325H15.2683C14.57 8.33325 14.155 8.84325 14.155 9.31825C14.155 10.3549 15.73 10.5933 15.8933 13.5099V19.8383C15.8933 21.2249 15.6417 21.4799 15.0833 21.4799C13.5967 21.4799 9.98833 16.1283 7.85 10.0033C7.41833 8.81492 6.99667 8.33492 5.875 8.33492H1.5C0.251667 8.33492 0 8.90992 0 9.55325C0 10.6899 1.48667 16.3416 6.91333 23.8083C10.53 28.9049 15.6233 31.6666 20.2567 31.6666C23.0417 31.6666 23.3817 31.0533 23.3817 29.9983C23.3817 25.1283 23.13 24.6683 24.525 24.6683C25.1717 24.6683 26.285 24.9883 28.885 27.4466C31.8567 30.3616 32.345 31.6666 34.0083 31.6666H38.3817C39.6283 31.6666 40.26 31.0533 39.8967 29.8433C39.065 27.2983 33.445 22.0633 33.1917 21.7133V21.7133Z" fill="#48494B"/>
</g>
<defs>
<clipPath id="clip0">
<rect width="40" height="40" fill="white"/>
</clipPath>
</defs>
</svg>
