<svg width="50" height="50" viewBox="0 0 50 50" fill="none" xmlns="http://www.w3.org/2000/svg">
<path d="M36.8145 0H13.1806C5.79032 0 0 5.79193 0 13.1839V36.8177C0 44.2097 5.79032 50 13.1806 50H36.8145C44.2081 50 50 44.2097 50 36.8161V13.1839C50 5.79193 44.2081 0 36.8145 0ZM46.7742 36.8161C46.7742 42.4919 42.4935 46.7726 36.8145 46.7726H13.1806C7.50484 46.7726 3.22581 42.4935 3.22581 36.8161V13.1839C3.22581 7.50645 7.50484 3.22581 13.1806 3.22581H36.8145C42.4935 3.22581 46.7742 7.50645 46.7742 13.1839V36.8161Z" fill="#33478F"/>
<path d="M34.8938 26.035C34.4088 25.4225 34.5475 25.15 34.8938 24.6025C34.9 24.5963 38.9037 19.0638 39.3162 17.1875L39.3187 17.1862C39.5237 16.5025 39.3188 16 38.3275 16H35.0475C34.2125 16 33.8275 16.4312 33.6212 16.9138C33.6212 16.9138 31.9512 20.9113 29.5887 23.5025C28.8262 24.2513 28.4738 24.4913 28.0575 24.4913C27.8525 24.4913 27.5338 24.2513 27.5338 23.5675V17.1862C27.5338 16.3662 27.3 16 26.6087 16H21.4513C20.9275 16 20.6163 16.3825 20.6163 16.7388C20.6163 17.5163 21.7975 17.695 21.92 19.8825V24.6288C21.92 25.6688 21.7313 25.86 21.3125 25.86C20.1975 25.86 17.4913 21.8463 15.8875 17.2525C15.5638 16.3612 15.2475 16.0012 14.4063 16.0012H11.125C10.1887 16.0012 10 16.4325 10 16.915C10 17.7675 11.115 22.0063 15.185 27.6063C17.8975 31.4288 21.7175 33.5 25.1925 33.5C27.2813 33.5 27.5363 33.04 27.5363 32.2488C27.5363 28.5963 27.3475 28.2513 28.3938 28.2513C28.8788 28.2513 29.7137 28.4913 31.6637 30.335C33.8925 32.5213 34.2588 33.5 35.5063 33.5H38.7862C39.7212 33.5 40.195 33.04 39.9225 32.1325C39.2987 30.2238 35.0838 26.2975 34.8938 26.035V26.035Z" fill="#33478F"/>
</svg>
