<svg width="30" height="30" viewBox="0 0 30 30" fill="none" xmlns="http://www.w3.org/2000/svg">
<path d="M14.6777 27.6562H6.24022C4.94788 27.6562 3.89648 26.6048 3.89648 25.3124V4.68749C3.89648 3.39515 4.94788 2.34374 6.24022 2.34374H20.6478C21.9402 2.34374 22.9916 3.39515 22.9916 4.68749V15.7617C22.9916 16.4089 23.5162 16.9336 24.1634 16.9336C24.8107 16.9336 25.3353 16.4089 25.3353 15.7617V4.68749C25.3353 2.10281 23.2325 0 20.6478 0H6.24022C3.65554 0 1.55273 2.10281 1.55273 4.68749V25.3124C1.55273 27.8971 3.65554 29.9999 6.24022 29.9999H14.6777C15.3249 29.9999 15.8496 29.4753 15.8496 28.8281C15.8496 28.1808 15.325 27.6562 14.6777 27.6562Z" fill="#48494B"/>
<path d="M19.4824 9.90232H12.0996C11.4524 9.90232 10.9277 10.427 10.9277 11.0742C10.9277 11.7214 11.4524 12.2461 12.0996 12.2461H19.4824C20.1296 12.2461 20.6543 11.7214 20.6543 11.0742C20.6543 10.427 20.1297 9.90232 19.4824 9.90232Z" fill="#48494B"/>
<path d="M12.0996 19.2773C11.4524 19.2773 10.9277 19.8019 10.9277 20.4492C10.9277 21.0964 11.4524 21.621 12.0996 21.621H13.8591C14.5063 21.621 15.0309 21.0964 15.0309 20.4492C15.0309 19.8019 14.5063 19.2773 13.8591 19.2773H12.0996Z" fill="#48494B"/>
<path d="M19.4824 5.21483H12.0996C11.4524 5.21483 10.9277 5.73948 10.9277 6.3867C10.9277 7.03393 11.4524 7.55858 12.0996 7.55858H19.4824C20.1296 7.55858 20.6543 7.03393 20.6543 6.3867C20.6543 5.73948 20.1297 5.21483 19.4824 5.21483Z" fill="#48494B"/>
<path d="M20.6543 15.7617C20.6543 15.1145 20.1296 14.5898 19.4824 14.5898H12.0996C11.4524 14.5898 10.9277 15.1145 10.9277 15.7617C10.9277 16.4089 11.4524 16.9335 12.0996 16.9335H19.4824C20.1297 16.9335 20.6543 16.4089 20.6543 15.7617Z" fill="#48494B"/>
<path d="M7.52929 16.9335C8.1765 16.9335 8.70117 16.4089 8.70117 15.7617C8.70117 15.1145 8.1765 14.5898 7.52929 14.5898C6.88209 14.5898 6.35742 15.1145 6.35742 15.7617C6.35742 16.4089 6.88209 16.9335 7.52929 16.9335Z" fill="#48494B"/>
<path d="M27.3713 20.3417C26.6933 19.6553 25.7647 19.2773 24.7564 19.2773C23.7531 19.2773 22.8866 19.5963 22.2373 20.1914C21.5882 19.5963 20.7217 19.2773 19.7185 19.2773C18.7102 19.2773 17.7816 19.6553 17.1035 20.3417C16.4097 21.0441 16.0276 22.0317 16.0276 23.1225C16.0276 25.4211 17.9802 26.8769 19.5491 28.0466C20.2626 28.5786 20.9366 29.0811 21.3246 29.5631C21.5471 29.8393 21.8827 30 22.2374 30C22.5921 30 22.9277 29.8393 23.1502 29.5631C23.5382 29.0811 24.2122 28.5786 24.9257 28.0466C26.4947 26.8768 28.4473 25.421 28.4473 23.1224C28.4472 22.0316 28.0651 21.044 27.3713 20.3417ZM23.5248 26.1676C23.0886 26.4928 22.6443 26.824 22.2373 27.1737C21.8303 26.824 21.3861 26.4928 20.9499 26.1676C19.6822 25.2224 18.3713 24.245 18.3713 23.1224C18.3713 22.1963 18.8874 21.621 19.7183 21.621C20.412 21.621 20.6819 21.9065 20.8246 22.1213C21.0136 22.4055 21.0624 22.7214 21.0695 22.7743C21.1044 23.3944 21.6153 23.8802 22.2373 23.8802C22.8594 23.8802 23.3703 23.3944 23.4052 22.7744C23.4123 22.7216 23.4611 22.4056 23.6501 22.1213C23.7928 21.9065 24.0628 21.621 24.7564 21.621C25.5873 21.621 26.1035 22.1963 26.1035 23.1224C26.1035 24.245 24.7926 25.2224 23.5248 26.1676Z" fill="#48494B"/>
<path d="M7.52929 7.55858C8.1765 7.55858 8.70117 7.03391 8.70117 6.3867C8.70117 5.73949 8.1765 5.21483 7.52929 5.21483C6.88209 5.21483 6.35742 5.73949 6.35742 6.3867C6.35742 7.03391 6.88209 7.55858 7.52929 7.55858Z" fill="#48494B"/>
<path d="M7.52929 12.2461C8.1765 12.2461 8.70117 11.7214 8.70117 11.0742C8.70117 10.427 8.1765 9.90232 7.52929 9.90232C6.88209 9.90232 6.35742 10.427 6.35742 11.0742C6.35742 11.7214 6.88209 12.2461 7.52929 12.2461Z" fill="#48494B"/>
<path d="M7.52929 21.621C8.1765 21.621 8.70117 21.0964 8.70117 20.4492C8.70117 19.802 8.1765 19.2773 7.52929 19.2773C6.88209 19.2773 6.35742 19.802 6.35742 20.4492C6.35742 21.0964 6.88209 21.621 7.52929 21.621Z" fill="#48494B"/>
</svg>
