<svg width="25" height="30" viewBox="0 0 25 30" fill="none" xmlns="http://www.w3.org/2000/svg">
<path d="M24.4792 30C24.3728 30 24.2691 29.9732 24.1818 29.9233L12.5 23.2363L0.818229 29.922C0.740229 29.9666 0.648874 29.9929 0.554055 29.9979C0.459237 30.0029 0.364566 29.9864 0.280293 29.9503C0.19602 29.9142 0.125356 29.8598 0.0759502 29.793C0.0265445 29.7262 0.000280005 29.6496 0 29.5714V2.14286C0.000827009 1.57475 0.275459 1.0301 0.763656 0.62838C1.25185 0.226664 1.91375 0.00068051 2.60417 0H22.3958C23.0862 0.00068051 23.7481 0.226664 24.2363 0.62838C24.7245 1.0301 24.9992 1.57475 25 2.14286V29.5714C25 29.6851 24.9451 29.7941 24.8475 29.8745C24.7498 29.9548 24.6173 30 24.4792 30ZM12.5 22.2857C12.6063 22.2857 12.7101 22.3125 12.7974 22.3624L23.9583 28.7511V2.14286C23.9583 1.80186 23.7937 1.47484 23.5007 1.23372C23.2077 0.992602 22.8102 0.857143 22.3958 0.857143H2.60417C2.18977 0.857143 1.79234 0.992602 1.49931 1.23372C1.20629 1.47484 1.04167 1.80186 1.04167 2.14286V28.7511L12.2026 22.3624C12.2899 22.3125 12.3937 22.2857 12.5 22.2857Z" fill="#48494B"/>
<path d="M17.4212 17C17.3082 17 17.198 16.9714 17.1066 16.9181L12.4997 14.2334L7.89285 16.9177C7.80149 16.9709 7.69149 16.9995 7.5786 16.9995C7.4657 16.9995 7.35569 16.9709 7.26432 16.9177C7.17296 16.8646 7.10491 16.7897 7.06993 16.7037C7.03495 16.6176 7.03483 16.525 7.06958 16.4389L8.82792 12.0969L4.2205 9.41221C4.1291 9.359 4.06107 9.28396 4.02617 9.19786C3.99127 9.11176 3.99128 9.01901 4.0262 8.93291C4.06112 8.84681 4.12917 8.77179 4.22057 8.71859C4.31198 8.66538 4.42207 8.63674 4.53504 8.63676H10.2284L11.991 4.29481C12.0262 4.20905 12.0943 4.13438 12.1855 4.08144C12.2768 4.0285 12.3865 4 12.4992 4C12.6119 4 12.7216 4.0285 12.8129 4.08144C12.9041 4.13438 12.9722 4.20905 13.0074 4.29481L14.7711 8.63676H20.465C20.5779 8.63674 20.688 8.66538 20.7794 8.71859C20.8708 8.77179 20.9389 8.84681 20.9738 8.93291C21.0087 9.01901 21.0087 9.11176 20.9738 9.19786C20.9389 9.28396 20.8709 9.359 20.7795 9.41221L16.1721 12.0969L17.9304 16.4389C17.9565 16.5032 17.9632 16.5717 17.95 16.6385C17.9368 16.7053 17.904 16.7687 17.8543 16.8235C17.8046 16.8782 17.7395 16.9227 17.6642 16.9534C17.5889 16.9841 17.5056 17.0001 17.4212 17ZM12.4997 13.2749C12.6127 13.2749 12.7229 13.3036 12.8143 13.3568L16.4042 15.4487L15.0343 12.0652C14.9995 11.9792 14.9995 11.8866 15.0344 11.8006C15.0693 11.7146 15.1372 11.6396 15.2285 11.5864L18.8195 9.49409H14.3827C14.2698 9.49408 14.1597 9.46542 14.0683 9.41221C13.9769 9.359 13.9089 9.28397 13.874 9.19788L12.4997 5.81314L11.126 9.19959C11.0911 9.28568 11.0231 9.36071 10.9317 9.41392C10.8403 9.46713 10.7302 9.49579 10.6173 9.4958H6.17998L9.77155 11.5868C9.8628 11.64 9.93073 11.715 9.96561 11.801C10.0005 11.887 10.0005 11.9796 9.96573 12.0656L8.59469 15.4487L12.1847 13.3568C12.2762 13.3035 12.3865 13.2748 12.4997 13.2749Z" fill="#48494B"/>
</svg>
